ffmpeg version 2.8.11-0ubuntu0.16.04.1 Copyright (c) 2000-2017 the FFmpeg developers
  built with gcc 5.4.0 (Ubuntu 5.4.0-6ubuntu1~16.04.4) 20160609
  configuration: --prefix=/usr --extra-version=0ubuntu0.16.04.1 --build-suffix=-ffmpeg --toolchain=hardened --libdir=/usr/lib/x86_64-linux-gnu --incdir=/usr/include/x86_64-linux-gnu --cc=cc --cxx=g++ --enable-gpl --enable-shared --disable-stripping --disable-decoder=libopenjpeg --disable-decoder=libschroedinger --enable-avresample --enable-avisynth --enable-gnutls --enable-ladspa --enable-libass --enable-libbluray --enable-libbs2b --enable-libcaca --enable-libcdio --enable-libflite --enable-libfontconfig --enable-libfreetype --enable-libfribidi --enable-libgme --enable-libgsm --enable-libmodplug --enable-libmp3lame --enable-libopenjpeg --enable-libopus --enable-libpulse --enable-librtmp --enable-libschroedinger --enable-libshine --enable-libsnappy --enable-libsoxr --enable-libspeex --enable-libssh --enable-libtheora --enable-libtwolame --enable-libvorbis --enable-libvpx --enable-libwavpack --enable-libwebp --enable-libx265 --enable-libxvid --enable-libzvbi --enable-openal --enable-opengl --enable-x11grab --enable-libdc1394 --enable-libiec61883 --enable-libzmq --enable-frei0r --enable-libx264 --enable-libopencv
  libavutil      54. 31.100 / 54. 31.100
  libavcodec     56. 60.100 / 56. 60.100
  libavformat    56. 40.101 / 56. 40.101
  libavdevice    56.  4.100 / 56.  4.100
  libavfilter     5. 40.101 /  5. 40.101
  libavresample   2.  1.  0 /  2.  1.  0
  libswscale      3.  1.101 /  3.  1.101
  libswresample   1.  2.101 /  1.  2.101
  libpostproc    53.  3.100 / 53.  3.100
[mp3 @ 0xd8e8c0] Unknown attached picture mimetype: ('image/png', None), skipping.
[mp3 @ 0xd8e8c0] Skipping 0 bytes of junk at 17522.
Input #0, mp3, from 'adam-mickiewicz-sonety-krymskie-zegluga.mp3':
  Metadata:
    title           : Adam Mickiewicz, Sonety krymskie, Żegluga
    artist          : Jan Dravnel
    album           : Wolne Lektury
    encoder         : Lavf53.21.0
    genre           : Speech
    originator_reference: cCymudqwHFeaaaGk
    date            : 2008-10-16
    performer       : Sebastian Buttny
    album_artist    : Fundacja Nowoczesna Polska
    time_reference  : 748940200
    copyright       : 2008 Fundacja Nowoczesna Polska. Licensed to the public under http://creativecommons.org/licenses/by-sa/3.0/deed.pl verify at http://wolnelektury.pl/katalog/lektura/sonety-krymskie-zegluga/
    creation_time   : 0009-57-48
    encoded_by      : Pro Tools
    publisher       : Fundacja Nowoczesna Polska
  Duration: 00:01:19.86, start: 0.000000, bitrate: 65 kb/s
    Stream #0:0: Audio: mp3, 44100 Hz, mono, s16p, 64 kb/s
Output #0, null, to 'pipe:':
  Metadata:
    title           : Adam Mickiewicz, Sonety krymskie, Żegluga
    artist          : Jan Dravnel
    album           : Wolne Lektury
    publisher       : Fundacja Nowoczesna Polska
    genre           : Speech
    originator_reference: cCymudqwHFeaaaGk
    date            : 2008-10-16
    performer       : Sebastian Buttny
    album_artist    : Fundacja Nowoczesna Polska
    time_reference  : 748940200
    copyright       : 2008 Fundacja Nowoczesna Polska. Licensed to the public under http://creativecommons.org/licenses/by-sa/3.0/deed.pl verify at http://wolnelektury.pl/katalog/lektura/sonety-krymskie-zegluga/
    encoded_by      : Pro Tools
    encoder         : Lavf56.40.101
    Stream #0:0: Audio: pcm_s16le, 44100 Hz, mono, s16, 705 kb/s
    Metadata:
      encoder         : Lavc56.60.100 pcm_s16le
Stream mapping:
  Stream #0:0 -> #0:0 (mp3 (native) -> pcm_s16le (native))
Press [q] to stop, [?] for help
[silencedetect @ 0xda1920] silence_start: -0.00367347
[silencedetect @ 0xda1920] silence_end: 0.626939 | silence_duration: 0.630612
[silencedetect @ 0xda1920] silence_start: 1.64204
[silencedetect @ 0xda1920] silence_end: 2.45551 | silence_duration: 0.813469
[silencedetect @ 0xda1920] silence_start: 3.52286
[silencedetect @ 0xda1920] silence_end: 4.3102 | silence_duration: 0.787347
[silencedetect @ 0xda1920] silence_start: 4.93347
[silencedetect @ 0xda1920] silence_end: 9.48245 | silence_duration: 4.54898
[silencedetect @ 0xda1920] silence_start: 10.2886
[silencedetect @ 0xda1920] silence_end: 11.52 | silence_duration: 1.23143
[silencedetect @ 0xda1920] silence_start: 13.7106
[silencedetect @ 0xda1920] silence_end: 15.2033 | silence_duration: 1.49265
[silencedetect @ 0xda1920] silence_start: 16.6624
[silencedetect @ 0xda1920] silence_end: 17.2408 | silence_duration: 0.578367
[silencedetect @ 0xda1920] silence_start: 18.4127
[silencedetect @ 0xda1920] silence_end: 19.8531 | silence_duration: 1.44041
[silencedetect @ 0xda1920] silence_start: 20.3196
[silencedetect @ 0xda1920] silence_end: 21.1069 | silence_duration: 0.787347
[silencedetect @ 0xda1920] silence_start: 21.9914
[silencedetect @ 0xda1920] silence_end: 22.8049 | silence_duration: 0.813469
[silencedetect @ 0xda1920] silence_start: 27.7122
[silencedetect @ 0xda1920] silence_end: 29.1004 | silence_duration: 1.38816
[silencedetect @ 0xda1920] silence_start: 29.5147
[silencedetect @ 0xda1920] silence_end: 30.2498 | silence_duration: 0.735102
[silencedetect @ 0xda1920] silence_start: 30.6641
[silencedetect @ 0xda1920] silence_end: 31.6865 | silence_duration: 1.02245
[silencedetect @ 0xda1920] silence_start: 32.8845
[silencedetect @ 0xda1920] silence_end: 33.5412 | silence_duration: 0.656735
[silencedetect @ 0xda1920] silence_start: 34.7914
[silencedetect @ 0xda1920] silence_end: 35.5265 | silence_duration: 0.735102
[silencedetect @ 0xda1920] silence_start: 36.3065
[silencedetect @ 0xda1920] silence_end: 36.8588 | silence_duration: 0.552245
[silencedetect @ 0xda1920] silence_start: 40.042
[silencedetect @ 0xda1920] silence_end: 40.7249 | silence_duration: 0.682857
[silencedetect @ 0xda1920] silence_start: 41.6878
[silencedetect @ 0xda1920] silence_end: 42.3445 | silence_duration: 0.656735
[silencedetect @ 0xda1920] silence_start: 47.4086
[silencedetect @ 0xda1920] silence_end: 48.9273 | silence_duration: 1.51878
[silencedetect @ 0xda1920] silence_start: 52.1106
[silencedetect @ 0xda1920] silence_end: 52.7151 | silence_duration: 0.60449
[silencedetect @ 0xda1920] silence_start: 55.8984
[silencedetect @ 0xda1920] silence_end: 56.4506 | silence_duration: 0.552245
[silencedetect @ 0xda1920] silence_start: 59.2159
[silencedetect @ 0xda1920] silence_end: 60.6302 | silence_duration: 1.41429
[silencedetect @ 0xda1920] silence_start: 61.7498
[silencedetect @ 0xda1920] silence_end: 62.8245 | silence_duration: 1.07469
[silencedetect @ 0xda1920] silence_start: 64.2837
[silencedetect @ 0xda1920] silence_end: 64.9143 | silence_duration: 0.630612
[silencedetect @ 0xda1920] silence_start: 65.6943
[silencedetect @ 0xda1920] silence_end: 66.978 | silence_duration: 1.28367
[silencedetect @ 0xda1920] silence_start: 69.3776
[silencedetect @ 0xda1920] silence_end: 71.0269 | silence_duration: 1.64939
[silencedetect @ 0xda1920] silence_start: 71.8331
[silencedetect @ 0xda1920] silence_end: 72.5682 | silence_duration: 0.735102
[silencedetect @ 0xda1920] silence_start: 73.2176
[silencedetect @ 0xda1920] silence_end: 74.24 | silence_duration: 1.02245
[silencedetect @ 0xda1920] silence_start: 74.7065
[silencedetect @ 0xda1920] silence_end: 76.1469 | silence_duration: 1.44041
[silencedetect @ 0xda1920] silence_start: 77.6061
size=N/A time=00:01:19.85 bitrate=N/A    
video:0kB audio:6878kB subtitle:0kB other streams:0kB global headers:0kB muxing overhead: unknown
